HIERARCHY
ROOT Hips
{
  OFFSET -125.086 92.215 135.881
  CHANNELS 6 Xposition Yposition Zposition Zrotation Xrotation Yrotation
  JOINT LeftUpLeg
  {
    OFFSET 8.64259 1.95398 -2.38835
    CHANNELS 3 Zrotation Xrotation Yrotation
    JOINT LeftLeg
    {
      OFFSET 43.7702 0 0
      CHANNELS 3 Zrotation Xrotation Yrotation
      JOINT LeftFoot
      {
        OFFSET 40.6238 0 0
        CHANNELS 3 Zrotation Xrotation Yrotation
        JOINT LeftToeBase
        {
          OFFSET 12.7242 0 0
          CHANNELS 3 Zrotation Xrotation Yrotation
          End Site
          {
            OFFSET 0 0 0
          }
        }
      }
    }
  }
  JOINT RightUpLeg
  {
    OFFSET -8.2249 1.95398 -2.59336
    CHANNELS 3 Zrotation Xrotation Yrotation
    JOINT RightLeg
    {
      OFFSET 43.5653 0 0
      CHANNELS 3 Zrotation Xrotation Yrotation
      JOINT RightFoot
      {
        OFFSET 40.6238 0 0
        CHANNELS 3 Zrotation Xrotation Yrotation
        JOINT RightToeBase
        {
          OFFSET 12.7242 0 0
          CHANNELS 3 Zrotation Xrotation Yrotation
          End Site
          {
            OFFSET 0 0 0
          }
        }
      }
    }
  }
  JOINT Spine
  {
    OFFSET 0.165834 0.87714 6.61349
    CHANNELS 3 Zrotation Xrotation Yrotation
    JOINT Spine1
    {
      OFFSET 7.38963 1.71661e-005 0
      CHANNELS 3 Zrotation Xrotation Yrotation
      JOINT Spine2
      {
        OFFSET 11.9445 1.14441e-005 0
        CHANNELS 3 Zrotation Xrotation Yrotation
        JOINT Spine3
        {
          OFFSET 14.7254 4.19617e-005 0
          CHANNELS 3 Zrotation Xrotation Yrotation
          JOINT Spine4
          {
            OFFSET 10.9679 0 0
            CHANNELS 3 Zrotation Xrotation Yrotation
            JOINT RightShoulder
            {
              OFFSET 2.46616 -1.6653 3.69651
              CHANNELS 3 Zrotation Xrotation Yrotation
              JOINT RightArm
              {
                OFFSET 13.0012 0 0
                CHANNELS 3 Zrotation Xrotation Yrotation
                JOINT RightForeArm
                {
                  OFFSET 28.7848 1.52588e-005 0
                  CHANNELS 3 Zrotation Xrotation Yrotation
                  JOINT RightHand
                  {
                    OFFSET 26.5688 1.52588e-005 0
                    CHANNELS 3 Zrotation Xrotation Yrotation
                    End Site
                    {
                      OFFSET 0 0 0
                    }
                  }
                }
              }
            }
            JOINT LeftShoulder
            {
              OFFSET 2.38034 -1.29275 -3.7523
              CHANNELS 3 Zrotation Xrotation Yrotation
              JOINT LeftArm
              {
                OFFSET 16.3182 6.10352e-005 0
                CHANNELS 3 Zrotation Xrotation Yrotation
                JOINT LeftForeArm
                {
                  OFFSET 27.0901 0 0
                  CHANNELS 3 Zrotation Xrotation Yrotation
                  JOINT LeftHand
                  {
                    OFFSET 24.5451 1.52588e-005 0
                    CHANNELS 3 Zrotation Xrotation Yrotation
                    End Site
                    {
                      OFFSET 0 0 0
                    }
                  }
                }
              }
            }
            JOINT Neck
            {
              OFFSET 5.0226 -0.0266342 0
              CHANNELS 3 Zrotation Xrotation Yrotation
              JOINT Head
              {
                OFFSET 6.69363 2.86102e-005 0
                CHANNELS 3 Zrotation Xrotation Yrotation
                End Site
                {
                  OFFSET 0 0 0
                }
              }
            }
          }
        }
      }
    }
  }
}
MOTION
Frames:	7
Frame Time:	0.0416667
-19.0738 93.4851 9.30112 106.137 47.1622 79.0115 179.733 21.9059 88.7588 -16.8002 13.8368 2.56754 42.6227 -5.56171 1.59243 65.6444 -2.58989 2.56653 177.248 -10.0319 95.1816 -48.0267 -6.87598 -2.51973 60.2358 0.612891 17.4552 41.7985 -2.1086 -5.09709 0.792619 7.4824 -89.9468 11.908 1.6014 -0.053172 0.237964 1.5975 -0.123623 -22.3039 1.54332 0.430668 -2.2913 1.54331 0.430657 110.679 -50.1207 -68.9325 23.5449 -18.9711 1.20649 -0.205616 -8.20308 -45.5655 -12.3126 0.0251465 -5.6329 -75.6758 -45.5719 100.339 -14.7837 11.4511 9.24947 24.7566 43.0057 -56.2738 -2.0345 -0.118872 -12.9762 4.53283 -1.76641 -1.8271 -28.0231 -1.70838 1.45109 
-4.17782 90.4643 -5.8516 108.583 43.8014 79.5305 -177.947 23.0922 89.8362 -28.5773 19.6084 2.30803 47.2148 -3.6446 6.46241 47.1363 -1.41495 3.68289 176.138 -7.67342 92.581 -71.6187 -4.42885 -3.45475 56.7812 -0.13044 10.8797 45.9816 -3.14638 -8.23763 0.900107 7.71466 -90.1716 11.4472 1.71043 -0.527328 -0.222798 1.68555 -0.602107 -22.7667 1.78983 0.0112753 -2.75408 1.78982 0.0112721 110.221 -49.8222 -69.5957 23.5316 -20.8288 -2.14556 -5.83359 -11.5584 -50.3727 -10.2528 0.0689451 -6.0865 -76.9867 -43.113 98.2787 -15.998 12.2708 14.1781 29.0737 41.4788 -60.9767 -1.93348 -0.125281 -13.4352 6.41188 -0.883959 -1.8698 -28.7491 -1.12421 2.74066 
8.8655 85.8313 -19.0455 113.457 42.1788 71.5776 -176.115 22.6682 83.3769 -59.0548 18.1132 1.76762 62.5027 8.48863 17.9252 46.2187 -1.36531 3.20411 176.426 8.75148 87.0439 -95.8906 -7.42298 -4.49135 58.2677 -2.00837 7.66107 54.2087 -4.31972 -2.76379 0.276211 8.61877 -89.4803 9.63205 0.785409 0.969733 -2.039 0.827304 0.934216 -24.5721 0.457679 1.16092 -4.5594 0.457658 1.16091 111.177 -52.5829 -68.5811 27.4012 -13.503 -6.20979 -8.68022 -17.447 -45.7774 -14.8591 -0.456933 -1.65294 -75.3934 -46.4565 100.753 -12.0956 4.95441 -3.00501 26.072 49.4067 -51.3033 -3.19732 -0.0313548 -12.5757 10.319 -0.0415504 -7.41282 -26.0074 -0.214574 9.53128 
21.2415 87.343 -30.8331 114.509 44.2676 72.8909 -175.948 13.0298 86.4929 -65.0171 22.7724 3.64839 65.2621 11.4245 21.0493 57.6588 -1.32036 8.3414 175.745 24.9671 89.7364 -84.8583 -5.09542 -2.84437 62.3859 -2.30227 13.1236 58.8875 -4.58241 0.72623 -0.301364 8.63975 -89.6906 9.59667 -0.461088 0.650749 -2.07443 -0.431981 0.670401 -24.6091 -0.635355 0.482095 -4.59648 -0.635353 0.482097 112.059 -53.6272 -67.4448 28.8037 -10.1465 -0.850894 -6.51875 -20.7968 -38.4875 -19.4008 -0.923418 0.312362 -74.5017 -48.2717 102.056 -17.1861 -2.43787 -18.9017 59.2976 57.042 -74.4732 -4.12379 -0.00276676 -9.21743 5.70786 1.49803 -7.84456 -26.8326 0.640492 11.3775 
33.5582 91.5747 -42.4799 115.831 49.9907 72.8185 179.822 7.77674 89.0075 -67.9387 20.4468 6.64918 55.0099 1.68389 6.11215 59.0974 -1.24004 8.67627 175.582 25.632 89.3823 -45.2395 -5.31118 -0.204317 59.038 0.731254 15.134 62.4443 -5.27942 0.0337715 -0.875761 8.42552 -89.9893 10.0246 -1.74038 0.165589 -1.64519 -1.73138 0.242044 -24.1897 -1.70966 -0.365276 -4.17711 -1.70966 -0.365289 111.193 -52.8929 -68.6074 27.0324 -8.47124 9.69275 -7.99293 -23.3062 -37.4568 -13.9899 -0.468204 -1.29131 -74.7637 -46.992 101.72 -15.2419 6.93691 -22.1276 29.4542 30.9138 -61.1984 2.06851 -0.302196 -9.83099 2.93636 1.78929 -7.6968 -27.3734 0.693881 11.225 
46.5562 90.6519 -55.0039 118.259 51.6227 69.6799 176.558 7.15272 87.5038 -75.836 12.6178 6.96166 55.5359 2.98757 7.38204 54.4133 -1.12292 9.67921 175.878 22.3689 87.8247 -29.0237 -4.14702 0.822123 53.5397 3.50525 17.8136 61.4016 -5.68743 -3.03461 -0.753608 8.29197 -90.006 10.2902 -1.50416 0.121632 -1.37994 -1.49736 0.187738 -23.9217 -1.47119 -0.33615 -3.90907 -1.47117 -0.336154 109.027 -50.0435 -71.4813 26.695 -8.14688 20.2962 -9.16252 -22.0952 -39.8211 -10.372 -0.239246 -2.65076 -75.3575 -46.0362 100.829 -5.76634 18.0252 -20.5577 15.3737 5.42317 -78.849 6.22179 -0.689581 -12.0523 0.259508 0.901921 -5.50371 -25.7992 -0.0266405 8.74696 
58.1099 86.1288 -65.894 125.569 48.9921 67.3087 177.719 11.8535 90.0038 -88.8561 7.32624 5.95831 59.8413 8.33923 14.5161 55.5883 -1.17286 9.28681 172.534 24.6142 91.8728 -54.8022 -16.1349 1.9903 51.1516 3.44073 8.90763 42.0775 -2.1547 -4.15102 -0.237966 8.96837 -90.5343 8.93288 -0.712767 -1.00903 -2.73824 -0.756487 -0.976679 -25.2708 -0.376578 -1.17657 -5.25817 -0.37659 -1.17657 108.285 -49.5641 -72.5756 21.1817 -7.52781 14.1745 -9.28726 -28.4774 -35.2206 -10.1655 -0.342347 -1.32064 -74.254 -47.9877 102.458 -6.96587 18.4542 -16.5453 19.6419 -1.76698 -92.2933 18.8441 -1.09029 -9.70412 2.08716 0.173398 -2.86042 -23.5367 -0.477904 6.2942 
